<svg width="45" height="21" viewBox="0 0 45 21" fill="none" xmlns="http://www.w3.org/2000/svg">
<g filter="url(#filter0_ii_2058_63)">
<rect width="45" height="21" rx="3" fill="#EE6E6E"/>
</g>
<path d="M8.56059 16V5.39453H12.4424C14.6983 5.39453 15.7969 6.61035 15.7969 8.17773C15.7969 9.49609 14.9913 10.1699 14.0098 10.4189V10.5215C15.0645 10.5801 16.2071 11.5029 16.2071 13.1436C16.2071 14.7695 15.0938 16 12.6182 16H8.56059ZM12.4717 14.623C13.9952 14.623 14.6104 13.9492 14.6104 13.0703C14.6104 12.0596 13.8047 11.2393 12.5303 11.2393H10.1719V14.623H12.4717ZM12.3106 9.97949C13.3799 9.97949 14.2149 9.32031 14.2149 8.30957C14.2149 7.43066 13.6143 6.77148 12.3399 6.77148H10.1719V9.97949H12.3106ZM20.8565 16.1611C18.5127 16.1611 17.0772 14.5498 17.0772 12.0742C17.0772 9.62793 18.542 7.94336 20.754 7.94336C22.5704 7.94336 24.2842 9.07129 24.2842 11.9424V12.499H18.6299C18.6739 14.0078 19.5601 14.8721 20.8711 14.8721C21.7647 14.8721 22.336 14.4912 22.5997 14.0078H24.1817C23.8301 15.2969 22.5997 16.1611 20.8565 16.1611ZM18.6446 11.3271H22.7461C22.7461 10.1113 21.9698 9.23242 20.7686 9.23242C19.5162 9.23242 18.7032 10.1992 18.6446 11.3271ZM29.1827 8.0459V9.29102H27.5567V13.6562C27.5567 14.5498 28.0108 14.7109 28.5088 14.7256C28.7286 14.7256 29.0801 14.6963 29.2999 14.6816V16.0439C29.0801 16.0732 28.7432 16.1025 28.3184 16.1025C27.0879 16.1025 25.9893 15.4287 26.004 13.9785V9.29102H24.8321V8.0459H26.004V6.1416H27.5567V8.0459H29.1827ZM29.9649 13.7588C29.9649 11.9424 31.503 11.4736 32.9385 11.3711C33.4659 11.3345 34.6597 11.2686 35.0332 11.2539L35.0186 10.624C35.0186 9.73047 34.4766 9.20312 33.4073 9.20312C32.4844 9.20312 31.9278 9.62793 31.7666 10.2139H30.2139C30.3604 8.89551 31.5909 7.94336 33.4659 7.94336C34.7256 7.94336 36.586 8.41211 36.586 10.7119V16H35.0625V14.916H35.004C34.6963 15.5166 33.9639 16.1758 32.6456 16.1758C31.1368 16.1758 29.9649 15.3115 29.9649 13.7588ZM31.4883 13.7734C31.4883 14.5352 32.1182 14.9307 32.9971 14.9307C34.2715 14.9307 35.0332 14.0811 35.0332 13.1289V12.3965L33.1582 12.5283C32.1329 12.6016 31.4883 12.9824 31.4883 13.7734Z" fill="white"/>
<defs>
<filter id="filter0_ii_2058_63" x="-1" y="-1" width="47" height="23" filterUnits="userSpaceOnUse" color-interpolation-filters="sRGB">
<feFlood flood-opacity="0" result="BackgroundImageFix"/>
<feBlend mode="normal" in="SourceGraphic" in2="BackgroundImageFix" result="shape"/>
<feColorMatrix in="SourceAlpha" type="matrix" values="0 0 0 0 0 0 0 0 0 0 0 0 0 0 0 0 0 0 127 0" result="hardAlpha"/>
<feOffset dx="1" dy="1"/>
<feGaussianBlur stdDeviation="0.5"/>
<feComposite in2="hardAlpha" operator="arithmetic" k2="-1" k3="1"/>
<feColorMatrix type="matrix" values="0 0 0 0 0 0 0 0 0 0 0 0 0 0 0 0 0 0 0.1 0"/>
<feBlend mode="normal" in2="shape" result="effect1_innerShadow_2058_63"/>
<feColorMatrix in="SourceAlpha" type="matrix" values="0 0 0 0 0 0 0 0 0 0 0 0 0 0 0 0 0 0 127 0" result="hardAlpha"/>
<feOffset dx="-1" dy="-1"/>
<feGaussianBlur stdDeviation="0.5"/>
<feComposite in2="hardAlpha" operator="arithmetic" k2="-1" k3="1"/>
<feColorMatrix type="matrix" values="0 0 0 0 0.933333 0 0 0 0 0.431373 0 0 0 0 0.431373 0 0 0 1 0"/>
<feBlend mode="normal" in2="effect1_innerShadow_2058_63" result="effect2_innerShadow_2058_63"/>
</filter>
</defs>
</svg>
