<svg width="33" height="16" viewBox="0 0 33 16" fill="none" xmlns="http://www.w3.org/2000/svg">
<g filter="url(#filter0_ii_2058_63)">
<rect width="33" height="16" rx="3" fill="#EE6E6E"/>
</g>
<path d="M5.34844 12V3.51562H8.45391C10.2586 3.51562 11.1375 4.48828 11.1375 5.74219C11.1375 6.79688 10.493 7.33594 9.70781 7.53516V7.61719C10.5516 7.66406 11.4656 8.40234 11.4656 9.71484C11.4656 11.0156 10.575 12 8.59453 12H5.34844ZM8.47734 10.8984C9.69609 10.8984 10.1883 10.3594 10.1883 9.65625C10.1883 8.84766 9.54375 8.19141 8.52422 8.19141H6.6375V10.8984H8.47734ZM8.34844 7.18359C9.20391 7.18359 9.87187 6.65625 9.87187 5.84766C9.87187 5.14453 9.39141 4.61719 8.37187 4.61719H6.6375V7.18359H8.34844ZM15.1852 12.1289C13.3102 12.1289 12.1617 10.8398 12.1617 8.85938C12.1617 6.90234 13.3336 5.55469 15.1031 5.55469C16.5562 5.55469 17.9273 6.45703 17.9273 8.75391V9.19922H13.4039C13.4391 10.4062 14.148 11.0977 15.1969 11.0977C15.9117 11.0977 16.3687 10.793 16.5797 10.4062H17.8453C17.5641 11.4375 16.5797 12.1289 15.1852 12.1289ZM13.4156 8.26172H16.6969C16.6969 7.28906 16.0758 6.58594 15.1148 6.58594C14.1129 6.58594 13.4625 7.35938 13.4156 8.26172ZM21.8461 5.63672V6.63281H20.5453V10.125C20.5453 10.8398 20.9086 10.9688 21.307 10.9805C21.4828 10.9805 21.7641 10.957 21.9398 10.9453V12.0352C21.7641 12.0586 21.4945 12.082 21.1547 12.082C20.1703 12.082 19.2914 11.543 19.3031 10.3828V6.63281H18.3656V5.63672H19.3031V4.11328H20.5453V5.63672H21.8461ZM22.4719 10.207C22.4719 8.75391 23.7023 8.37891 24.8508 8.29688C25.2727 8.26758 26.2277 8.21484 26.5266 8.20312L26.5148 7.69922C26.5148 6.98438 26.0812 6.5625 25.2258 6.5625C24.4875 6.5625 24.0422 6.90234 23.9133 7.37109H22.6711C22.7883 6.31641 23.7727 5.55469 25.2727 5.55469C26.2805 5.55469 27.7687 5.92969 27.7687 7.76953V12H26.55V11.1328H26.5031C26.257 11.6133 25.6711 12.1406 24.6164 12.1406C23.4094 12.1406 22.4719 11.4492 22.4719 10.207ZM23.6906 10.2188C23.6906 10.8281 24.1945 11.1445 24.8977 11.1445C25.9172 11.1445 26.5266 10.4648 26.5266 9.70312V9.11719L25.0266 9.22266C24.2062 9.28125 23.6906 9.58594 23.6906 10.2188Z" fill="white"/>
<defs>
<filter id="filter0_ii_2058_63" x="-1" y="-1" width="35" height="18" filterUnits="userSpaceOnUse" color-interpolation-filters="sRGB">
<feFlood flood-opacity="0" result="BackgroundImageFix"/>
<feBlend mode="normal" in="SourceGraphic" in2="BackgroundImageFix" result="shape"/>
<feColorMatrix in="SourceAlpha" type="matrix" values="0 0 0 0 0 0 0 0 0 0 0 0 0 0 0 0 0 0 127 0" result="hardAlpha"/>
<feOffset dx="1" dy="1"/>
<feGaussianBlur stdDeviation="0.5"/>
<feComposite in2="hardAlpha" operator="arithmetic" k2="-1" k3="1"/>
<feColorMatrix type="matrix" values="0 0 0 0 0 0 0 0 0 0 0 0 0 0 0 0 0 0 0.1 0"/>
<feBlend mode="normal" in2="shape" result="effect1_innerShadow_2058_63"/>
<feColorMatrix in="SourceAlpha" type="matrix" values="0 0 0 0 0 0 0 0 0 0 0 0 0 0 0 0 0 0 127 0" result="hardAlpha"/>
<feOffset dx="-1" dy="-1"/>
<feGaussianBlur stdDeviation="0.5"/>
<feComposite in2="hardAlpha" operator="arithmetic" k2="-1" k3="1"/>
<feColorMatrix type="matrix" values="0 0 0 0 0.933333 0 0 0 0 0.431373 0 0 0 0 0.431373 0 0 0 1 0"/>
<feBlend mode="normal" in2="effect1_innerShadow_2058_63" result="effect2_innerShadow_2058_63"/>
</filter>
</defs>
</svg>
