<svg width="20" height="20" viewBox="0 0 20 20" fill="none" xmlns="http://www.w3.org/2000/svg">
<g clip-path="url(#clip0_2003_36)">
<path d="M7.49984 18.3334C10.7215 18.3334 13.3332 15.7217 13.3332 12.5C13.3332 9.27836 10.7215 6.66669 7.49984 6.66669C4.27818 6.66669 1.6665 9.27836 1.6665 12.5C1.6665 15.7217 4.27818 18.3334 7.49984 18.3334Z" fill="#999999"/>
<path d="M13.2813 13.2815C16.1334 12.8996 18.3332 10.4567 18.3332 7.50002C18.3332 4.27836 15.7215 1.66669 12.4998 1.66669C9.54315 1.66669 7.10025 3.86641 6.71839 6.71858M13.3332 12.5C13.3332 15.7217 10.7215 18.3334 7.49984 18.3334C4.27818 18.3334 1.6665 15.7217 1.6665 12.5C1.6665 9.27836 4.27818 6.66669 7.49984 6.66669C10.7215 6.66669 13.3332 9.27836 13.3332 12.5Z" stroke="#999999" stroke-width="1.5" stroke-linecap="round" stroke-linejoin="round"/>
</g>
<defs>
<clipPath id="clip0_2003_36">
<rect width="20" height="20" fill="white"/>
</clipPath>
</defs>
</svg>
