<svg width="20" height="20" viewBox="0 0 20 20" fill="none" xmlns="http://www.w3.org/2000/svg">
<g clip-path="url(#clip0_2003_42)">
<path d="M4.99984 5.00002L6.6665 3.33335L4.99984 1.66669" fill="#999999"/>
<path d="M14.9998 15L13.3332 16.6667L14.9998 18.3334" fill="#999999"/>
<path d="M6.6665 18.3334C9.42793 18.3334 11.6665 16.0948 11.6665 13.3334C11.6665 10.5719 9.42793 8.33335 6.6665 8.33335C3.90508 8.33335 1.6665 10.5719 1.6665 13.3334C1.6665 16.0948 3.90508 18.3334 6.6665 18.3334Z" fill="#999999"/>
<path d="M4.99984 5.00002L6.6665 3.33335M6.6665 3.33335L4.99984 1.66669M6.6665 3.33335H4.99984C3.15889 3.33335 1.6665 4.82574 1.6665 6.66669M14.9998 15L13.3332 16.6667M13.3332 16.6667L14.9998 18.3334M13.3332 16.6667H14.9998C16.8408 16.6667 18.3332 15.1743 18.3332 13.3334M11.1808 11.181C11.8327 11.4924 12.5626 11.6667 13.3332 11.6667C16.0946 11.6667 18.3332 9.42811 18.3332 6.66669C18.3332 3.90526 16.0946 1.66669 13.3332 1.66669C10.5717 1.66669 8.33317 3.90526 8.33317 6.66669C8.33317 7.43728 8.5075 8.16716 8.81886 8.81905M11.6665 13.3334C11.6665 16.0948 9.42793 18.3334 6.6665 18.3334C3.90508 18.3334 1.6665 16.0948 1.6665 13.3334C1.6665 10.5719 3.90508 8.33335 6.6665 8.33335C9.42793 8.33335 11.6665 10.5719 11.6665 13.3334Z" stroke="#999999" stroke-width="1.5" stroke-linecap="round" stroke-linejoin="round"/>
</g>
<defs>
<clipPath id="clip0_2003_42">
<rect width="20" height="20" fill="white"/>
</clipPath>
</defs>
</svg>
