<svg width="20" height="20" viewBox="0 0 20 20" fill="none" xmlns="http://www.w3.org/2000/svg">
<g clip-path="url(#clip0_2003_55)">
<path fill-rule="evenodd" clip-rule="evenodd" d="M13.5808 9.79161C13.2291 7.90165 11.621 6.51944 9.5962 6.89512C7.57144 7.2708 6.26223 9.09756 6.53596 11.0825C6.75588 12.6772 7.96977 16.4189 8.43851 17.8283C8.50247 18.0206 8.53445 18.1168 8.59778 18.1839C8.65294 18.2423 8.72628 18.2846 8.80445 18.3032C8.89419 18.3245 8.99346 18.3041 9.192 18.2633C10.6469 17.9646 14.4943 17.145 15.9853 16.5381C17.8412 15.7827 18.799 13.7368 18.0816 11.7942C17.3642 9.85154 15.3935 9.15125 13.5808 9.79161Z" fill="#999999"/>
<path d="M12.9545 8.27118C13.2661 7.71752 13.5259 7.21792 13.6861 6.83767C14.4643 4.99121 13.6948 2.8673 11.814 2.00093C9.93306 1.13456 8.04434 2.0329 7.21543 3.76743C5.63031 2.67974 3.51582 2.83948 2.34974 4.53685C1.18366 6.23422 1.54963 8.45168 3.14674 9.66169C3.87159 10.2109 5.30514 11.0202 6.6548 11.7404M13.5808 9.79161C13.2291 7.90165 11.621 6.51944 9.5962 6.89512C7.57144 7.2708 6.26223 9.09756 6.53596 11.0825C6.75588 12.6772 7.96977 16.4189 8.43851 17.8283C8.50247 18.0206 8.53445 18.1168 8.59778 18.1839C8.65294 18.2423 8.72628 18.2846 8.80445 18.3032C8.89419 18.3245 8.99346 18.3041 9.192 18.2633C10.6469 17.9646 14.4943 17.145 15.9853 16.5381C17.8412 15.7827 18.799 13.7368 18.0816 11.7942C17.3642 9.85154 15.3935 9.15125 13.5808 9.79161Z" stroke="#999999" stroke-width="1.5" stroke-linecap="round" stroke-linejoin="round"/>
</g>
<defs>
<clipPath id="clip0_2003_55">
<rect width="20" height="20" fill="white"/>
</clipPath>
</defs>
</svg>
