<svg width="20" height="20" viewBox="0 0 20 20" fill="none" xmlns="http://www.w3.org/2000/svg">
<path d="M14.4998 1.66666H5.49984C5.03313 1.66666 4.79977 1.66666 4.62151 1.75748C4.46471 1.83738 4.33723 1.96486 4.25733 2.12166C4.1665 2.29992 4.1665 2.53328 4.1665 2.99999V4.72875C4.1665 5.1364 4.1665 5.34023 4.21255 5.53204C4.25338 5.7021 4.32072 5.86468 4.4121 6.0138C4.51517 6.18199 4.6593 6.32612 4.94755 6.61437L7.39036 9.05718C7.72037 9.38719 7.88538 9.5522 7.94721 9.74248C8.00159 9.90985 8.00159 10.0901 7.94721 10.2575C7.88538 10.4478 7.72038 10.6128 7.39036 10.9428L4.94755 13.3856C4.6593 13.6739 4.51517 13.818 4.4121 13.9862C4.32072 14.1353 4.25338 14.2979 4.21255 14.4679C4.1665 14.6597 4.1665 14.8636 4.1665 15.2712V17C4.1665 17.4667 4.1665 17.7001 4.25733 17.8783C4.33723 18.0351 4.46471 18.1626 4.62151 18.2425C4.79977 18.3333 5.03313 18.3333 5.49984 18.3333H14.4998C14.9665 18.3333 15.1999 18.3333 15.3782 18.2425C15.535 18.1626 15.6624 18.0351 15.7423 17.8783C15.8332 17.7001 15.8332 17.4667 15.8332 17V15.2712C15.8332 14.8636 15.8332 14.6597 15.7871 14.4679C15.7463 14.2979 15.679 14.1353 15.5876 13.9862C15.4845 13.818 15.3404 13.6739 15.0521 13.3856L12.6093 10.9428C12.2793 10.6128 12.1143 10.4478 12.0525 10.2575C11.9981 10.0901 11.9981 9.90985 12.0525 9.74248C12.1143 9.5522 12.2793 9.3872 12.6093 9.05718L15.0521 6.61437C15.3404 6.32612 15.4845 6.18199 15.5876 6.0138C15.679 5.86468 15.7463 5.7021 15.7871 5.53204C15.8332 5.34023 15.8332 5.1364 15.8332 4.72875V2.99999C15.8332 2.53328 15.8332 2.29992 15.7423 2.12166C15.6624 1.96486 15.535 1.83738 15.3782 1.75748C15.1999 1.66666 14.9665 1.66666 14.4998 1.66666Z" fill="#999999" stroke="#999999" stroke-width="1.5" stroke-linecap="round" stroke-linejoin="round"/>
<path d="M8 15.5H12" stroke="#F7F7FB" stroke-width="1.5" stroke-linecap="round"/>
</svg>
