<svg width="20" height="20" viewBox="0 0 20 20" fill="none" xmlns="http://www.w3.org/2000/svg">
<g filter="url(#filter0_ii_2003_59)">
<path d="M9.99821 1.62762C6.36321 1.62762 3.33154 2.92679 3.33154 4.96096C3.33154 6.99512 6.36321 8.29429 9.99821 8.29429C13.6332 8.29429 16.6649 6.99512 16.6649 4.96096C16.6649 2.92679 13.6332 1.62762 9.99821 1.62762ZM3.33154 7.98179V9.96096C3.33154 11.9951 6.36321 13.2943 9.99821 13.2943C13.6332 13.2943 16.6649 11.9951 16.6649 9.96096V7.98179C15.1532 9.22346 12.7965 9.96096 9.99821 9.96096C7.19988 9.96096 4.84321 9.22346 3.33154 7.98179ZM3.33154 12.9818V14.961C3.33154 16.9951 6.36321 18.2943 9.99821 18.2943C13.6332 18.2943 16.6649 16.9951 16.6649 14.961V12.9818C15.1532 14.2235 12.7965 14.961 9.99821 14.961C7.19988 14.961 4.84321 14.2235 3.33154 12.9818Z" fill="#C9C9D9"/>
</g>
<defs>
<filter id="filter0_ii_2003_59" x="3.03154" y="1.32762" width="13.9335" height="17.2667" filterUnits="userSpaceOnUse" color-interpolation-filters="sRGB">
<feFlood flood-opacity="0" result="BackgroundImageFix"/>
<feBlend mode="normal" in="SourceGraphic" in2="BackgroundImageFix" result="shape"/>
<feColorMatrix in="SourceAlpha" type="matrix" values="0 0 0 0 0 0 0 0 0 0 0 0 0 0 0 0 0 0 127 0" result="hardAlpha"/>
<feOffset dx="0.3" dy="0.3"/>
<feGaussianBlur stdDeviation="0.15"/>
<feComposite in2="hardAlpha" operator="arithmetic" k2="-1" k3="1"/>
<feColorMatrix type="matrix" values="0 0 0 0 0 0 0 0 0 0 0 0 0 0 0 0 0 0 0.3 0"/>
<feBlend mode="normal" in2="shape" result="effect1_innerShadow_2003_59"/>
<feColorMatrix in="SourceAlpha" type="matrix" values="0 0 0 0 0 0 0 0 0 0 0 0 0 0 0 0 0 0 127 0" result="hardAlpha"/>
<feOffset dx="-0.3" dy="-0.3"/>
<feGaussianBlur stdDeviation="0.15"/>
<feComposite in2="hardAlpha" operator="arithmetic" k2="-1" k3="1"/>
<feColorMatrix type="matrix" values="0 0 0 0 1 0 0 0 0 1 0 0 0 0 1 0 0 0 1 0"/>
<feBlend mode="normal" in2="effect1_innerShadow_2003_59" result="effect2_innerShadow_2003_59"/>
</filter>
</defs>
</svg>
