<svg width="20" height="20" viewBox="0 0 20 20" fill="none" xmlns="http://www.w3.org/2000/svg">
<path d="M9.68571 1.69512C8.95321 2.00762 4.5582 3.88346 3.82654 4.19596C3.51904 4.32679 3.33154 4.6168 3.33154 4.95097C3.33154 8.60096 3.47737 10.2343 4.13904 12.1151C5.00487 14.5776 6.70488 16.5401 9.58154 18.1843C9.83738 18.331 10.159 18.331 10.4149 18.1843C13.3174 16.5251 15.0249 14.5693 15.8832 12.1151C16.5366 10.2476 16.6649 8.6943 16.6649 4.95097C16.6649 4.61847 16.4757 4.32763 16.1699 4.19596L10.3632 1.69512C10.1532 1.60512 9.89571 1.60512 9.68571 1.69512Z" fill="#999999"/>
</svg>
