<svg width="20" height="20" viewBox="0 0 20 20" fill="none" xmlns="http://www.w3.org/2000/svg">
<path d="M9.58662 1.73745L3.75329 5.07079C3.19329 5.3907 3.19329 6.2092 3.75329 6.52912C4.48245 6.94579 8.85745 9.44579 9.58662 9.86245C9.84245 10.0089 10.1633 10.0089 10.42 9.86245L16.2533 6.52912C16.8133 6.2092 16.8133 5.3907 16.2533 5.07079L10.42 1.73745C10.1641 1.59104 9.84328 1.59104 9.58662 1.73745ZM3.96162 9.15929C3.75579 9.21545 3.55495 9.35012 3.44079 9.54995C3.21245 9.94954 3.35412 10.4675 3.75329 10.6958L9.58662 14.0291C9.84245 14.1755 10.1633 14.1755 10.42 14.0291L16.2533 10.6958C16.6533 10.4675 16.7941 9.94954 16.5658 9.54995C16.3374 9.15037 15.8199 9.00912 15.4199 9.23745L10.0033 12.3365L4.58662 9.23745C4.38662 9.12329 4.16745 9.1032 3.96162 9.15929ZM3.96162 13.3259C3.75579 13.3821 3.55495 13.5168 3.44079 13.7166C3.21245 14.1162 3.35412 14.6341 3.75329 14.8625L9.58662 18.1958C9.84245 18.3422 10.1633 18.3422 10.42 18.1958L16.2533 14.8625C16.6533 14.6341 16.7941 14.1162 16.5658 13.7166C16.3374 13.317 15.8199 13.1758 15.4199 13.4041L10.0033 16.5031L4.58662 13.4041C4.38662 13.29 4.16745 13.2699 3.96162 13.3259Z" fill="#999999"/>
</svg>
