<svg width="20" height="20" viewBox="0 0 20 20" fill="none" xmlns="http://www.w3.org/2000/svg">
<path d="M15.6668 6.66666H4.3335C3.78121 6.66666 3.3335 7.11437 3.3335 7.66666V15.6667C3.3335 16.2189 3.78121 16.6667 4.33349 16.6667H15.6668C16.2191 16.6667 16.6668 16.2189 16.6668 15.6667V7.66666C16.6668 7.11437 16.2191 6.66666 15.6668 6.66666Z" fill="#999999" stroke="#999999" stroke-width="1.5" stroke-linejoin="round"/>
<path d="M9.44444 6.66668C9.75127 6.66668 10 6.41795 10 6.11112V6.11112C10 5.93626 9.91767 5.7716 9.77778 5.66668L7.41202 3.89236C6.95522 3.54976 6.34405 3.49465 5.83333 3.75001V3.75001C5.32261 4.00537 5 4.5361 5 5.10711V5.10711C5 5.96043 5.69176 6.66668 6.54508 6.66668H9.44444Z" stroke="#999999" stroke-width="1.5" stroke-linejoin="round"/>
<path d="M10.5556 6.66668C10.2487 6.66668 10 6.41795 10 6.11112V6.11112C10 5.93626 10.0823 5.7716 10.2222 5.66668L12.588 3.89236C13.0448 3.54976 13.6559 3.49465 14.1667 3.75001V3.75001C14.6774 4.00537 15 4.5361 15 5.10711V5.10711C15 5.96043 14.3082 6.66668 13.4549 6.66668H10.5556Z" stroke="#999999" stroke-width="1.5" stroke-linejoin="round"/>
<path d="M10 10V14" stroke="#F7F7FB" stroke-width="1.5" stroke-linecap="round" stroke-linejoin="round"/>
<path d="M12 12L8 12" stroke="#F7F7FB" stroke-width="1.5" stroke-linecap="round" stroke-linejoin="round"/>
</svg>
